<?xml version="1.0" standalone="no"?>
<!DOCTYPE svg PUBLIC "-//W3C//DTD SVG 1.1//EN" "http://www.w3.org/Graphics/SVG/1.1/DTD/svg11.dtd" >
<svg xmlns="http://www.w3.org/2000/svg">
<metadata>
This is a custom SVG webfont generated by Font Squirrel.
Copyright   : Copyright C 2006  Barry SchwartzThis fontprogram is free software you can redistribute it andormodify it under the terms of the GNU General Public License aspublished by the Free Software Foundation either version 2 of theLicense or at your option any later versionIn the special case where you are embedding or similarly including the font in a document the document with the font included in it need not be subject to the terms of the GNU General Public LicenseThis fontprogram is distributed in the hope that it will be usefulbut WITHOUT ANY WARRANTY without even the implied warranty ofMERCHANTABILITY or FITNESS FOR A PARTICULAR PURPOSE  See the GNUGeneral Public License for more detailsYou should have received a copy of the GNU General Public Licensealong with this program if not write to the Free SoftwareFoundation Inc 59 Temple Place Suite 330 Boston MA 021111307USA
</metadata>
<defs>
<font id="webfontIEwcSbIo" horiz-adv-x="1421" >
<font-face units-per-em="2048" ascent="1638" descent="-410" />
<missing-glyph horiz-adv-x="819" />
<glyph unicode=" "  horiz-adv-x="819" />
<glyph unicode="&#x09;" horiz-adv-x="819" />
<glyph unicode="&#xa0;" horiz-adv-x="819" />
<glyph unicode="!" horiz-adv-x="688" d="M246 90q0 41 28.5 69.5t69.5 28.5t69.5 -28.5t28.5 -69.5t-28.5 -69.5t-69.5 -28.5t-69.5 28.5t-28.5 69.5zM291 1491h110l-16 -1151h-78z" />
<glyph unicode="&#x22;" horiz-adv-x="657" d="M102 1491h138l-21 -418h-96zM418 1491h137l-20 -418h-97z" />
<glyph unicode="#" horiz-adv-x="1241" d="M102 350v103h285l39 219h-266v102h282l50 281l102 -19l-47 -262h223l49 281l101 -19l-46 -262h267v-102h-285l-39 -219h266v-103h-284l-49 -280l-101 18l45 262h-221l-49 -280l-102 18l47 262h-267zM489 453h224l39 219h-224z" />
<glyph unicode="$" horiz-adv-x="933" d="M164 340l102 4q18 -203 195 -203q96 0 151.5 63.5t55.5 135.5q0 115 -224 164q-84 18 -142 50t-81.5 66.5t-32 61.5t-8.5 51q0 125 67.5 198t158.5 91v256h102v-252q111 -14 178.5 -94t71.5 -191l-103 -4q-2 72 -50 130.5t-142 58.5q-74 0 -127 -52.5t-53 -138.5 q0 -92 182 -131q305 -68 305 -264q0 -102 -68.5 -191.5t-193.5 -105.5v-256h-102v256q-90 14 -160 84t-82 213z" />
<glyph unicode="%" horiz-adv-x="1185" d="M123 872q0 104 63.5 162t139.5 58q104 0 161.5 -63.5t57.5 -139.5q0 -106 -63.5 -162.5t-139.5 -56.5q-104 0 -161.5 63t-57.5 139zM225 874q0 -39 30 -70.5t85 -31.5q39 0 70.5 28.5t31.5 84.5q0 39 -28.5 71.5t-83.5 32.5q-39 0 -72 -30t-33 -85zM297 23l500 1073 l94 -43l-502 -1076zM641 186q0 104 63.5 162t139.5 58q104 0 161.5 -63.5t57.5 -139.5q0 -104 -63.5 -161.5t-139.5 -57.5q-104 0 -161.5 63t-57.5 139zM743 188q0 -39 30 -70.5t85 -31.5q39 0 71 28.5t32 84.5q0 39 -29 71.5t-84 32.5q-39 0 -72 -30t-33 -85z" />
<glyph unicode="&#x26;" horiz-adv-x="1431" d="M164 446q0 156 76.5 269.5t199.5 171.5q-70 47 -109.5 122.5t-39.5 155.5q0 160 102.5 256.5t237.5 96.5q158 0 254 -102.5t96 -235.5h-102q0 94 -69 164.5t-179 70.5q-94 0 -166 -68.5t-72 -179.5q0 -92 67.5 -164.5t176.5 -72.5v-103q-152 0 -261.5 -106.5 t-109.5 -271.5q0 -147 105.5 -259t273.5 -112q147 0 259 105.5t112 275.5v368h-103v103h103v102h102v-102h273v-103h-273v-368q0 -219 -143.5 -351.5t-327.5 -132.5q-217 0 -350 143.5t-133 327.5z" />
<glyph unicode="'" horiz-adv-x="342" d="M102 1491h138l-21 -418h-96z" />
<glyph unicode="(" horiz-adv-x="759" d="M184 604q0 315 117 593t326 484l71 -71q-195 -195 -303 -453t-108 -553q0 -281 106.5 -536.5t300.5 -452.5l-73 -72q-207 211 -322 485.5t-115 575.5z" />
<glyph unicode=")" horiz-adv-x="759" d="M61 1610l72 71q209 -209 325.5 -485t116.5 -592q0 -301 -114.5 -576.5t-323.5 -484.5l-71 72q193 197 300 453t107 536q0 295 -108.5 553t-303.5 453z" />
<glyph unicode="*" horiz-adv-x="1013" d="M164 1018l280 143l-280 144l45 77l266 -165l-10 313h90l-16 -313l268 165l43 -79l-281 -142l281 -143l-43 -78l-268 166l16 -313h-90l10 311l-266 -166z" />
<glyph unicode="+" horiz-adv-x="1224" d="M102 459v102h459v459h103v-459h458v-102h-458v-459h-103v459h-459z" />
<glyph unicode="," horiz-adv-x="497" d="M123 -139l131 428l123 -41l-168 -418z" />
<glyph unicode="-" horiz-adv-x="727" d="M61 575l588 105l17 -100l-586 -105z" />
<glyph unicode="." horiz-adv-x="606" d="M205 90q0 41 28.5 69.5t69.5 28.5t69.5 -28.5t28.5 -69.5t-28.5 -69.5t-69.5 -28.5t-69.5 28.5t-28.5 69.5z" />
<glyph unicode="/" horiz-adv-x="919" d="M123 -266l700 1925l97 -35l-701 -1925z" />
<glyph unicode="0" horiz-adv-x="1382" d="M215 530q0 262 144.5 417t326.5 155q211 0 346 -167t135 -392q0 -262 -144 -417t-327 -155q-211 0 -346 167t-135 392zM317 530q0 -184 105.5 -320t271.5 -136q152 0 261.5 132t109.5 337q0 184 -106.5 320t-272.5 136q-150 0 -259.5 -133t-109.5 -336z" />
<glyph unicode="1" horiz-adv-x="593" d="M246 0v1073h102v-1073h-102z" />
<glyph unicode="2" horiz-adv-x="915" d="M102 999q96 102 240 103q158 0 251 -101.5t93 -230.5q0 -104 -47 -182l-274 -486h450v-102h-625l359 639q35 55 35 129q0 90 -64.5 160.5t-175.5 70.5q-100 0 -168 -73z" />
<glyph unicode="3" horiz-adv-x="974" d="M41 -367l51 88q106 -61 240 -61q184 0 321.5 132t137.5 337q0 152 -90.5 275.5t-241.5 166.5q106 72 106 193q0 88 -65.5 159.5t-175.5 71.5q-100 0 -168 -73l-74 71q100 104 240 105q154 0 250 -100.5t96 -223.5q0 -82 -41 -166q125 -76 195.5 -204t70.5 -273 q0 -250 -168 -411.5t-393 -161.5q-160 -1 -291 75z" />
<glyph unicode="4" horiz-adv-x="1198" d="M0 0l946 1128v-1026h150v-102h-150v-319h-102v319h-844zM219 102h625v746z" />
<glyph unicode="5" horiz-adv-x="1224" d="M205 457l53 616h705v-102h-611l-28 -344q31 31 69.5 46t63 17t71.5 2q250 0 412 -168t162 -393q0 -250 -168 -411.5t-393 -161.5q-160 0 -291 75l51 88q106 -61 238 -61q186 0 323 132t137 337q0 186 -132 323.5t-337 137.5q-190 0 -325 -133z" />
<glyph unicode="6" horiz-adv-x="1169" d="M123 446q0 139 65 250l480 832l90 -51l-336 -580q88 33 172 33q217 0 350 -143.5t133 -327.5q0 -217 -143 -350.5t-328 -133.5q-217 0 -350 143.5t-133 327.5zM225 449q0 -147 105.5 -259t273.5 -112q147 0 259 105.5t112 273.5q0 147 -105.5 258.5t-273.5 111.5 q-147 0 -259 -105t-112 -273z" />
<glyph unicode="7" horiz-adv-x="1048" d="M61 971v102h988l-877 -1517l-90 51l788 1364h-809z" />
<glyph unicode="8" horiz-adv-x="1241" d="M143 446q0 111 39 201t95.5 139.5t108.5 76t87 26.5q-14 2 -42 16.5t-65.5 44t-64.5 87t-27 128.5q0 160 105.5 257.5t241.5 97.5q158 0 251 -103.5t93 -238.5q0 -74 -19.5 -120t-60.5 -95q-14 -16 -56.5 -43t-60.5 -31q41 -2 112.5 -40t125.5 -112q92 -127 92 -278 q0 -217 -143.5 -350.5t-327.5 -133.5q-217 0 -350.5 143.5t-133.5 327.5zM246 449q0 -147 105.5 -259t273.5 -112q147 0 258.5 105.5t111.5 273.5q0 145 -103.5 257.5t-268.5 112.5q-160 0 -268.5 -108t-108.5 -270zM377 1167q0 -92 65.5 -164.5t178.5 -72.5 q94 0 167.5 67.5t73.5 178.5q0 94 -65.5 166.5t-175.5 72.5q-96 0 -170 -68.5t-74 -179.5z" />
<glyph unicode="9" horiz-adv-x="1169" d="M92 623q0 217 143.5 350t327.5 133q217 0 350.5 -144.5t133.5 -326.5q0 -139 -64 -250l-481 -831l-88 49l336 581q-84 -33 -175 -32q-217 0 -350 143.5t-133 327.5zM195 623q0 -145 105.5 -257t272.5 -112q147 0 259 104.5t112 274.5q0 147 -105.5 259t-273.5 112 q-147 0 -258.5 -105.5t-111.5 -275.5z" />
<glyph unicode=":" horiz-adv-x="647" d="M225 90q0 41 29 69.5t70 28.5t69.5 -28.5t28.5 -69.5t-28.5 -69.5t-69.5 -28.5t-70 28.5t-29 69.5zM225 985q0 39 29 68.5t70 29.5t69.5 -29.5t28.5 -68.5q0 -41 -28.5 -69.5t-69.5 -28.5t-70 28.5t-29 69.5z" />
<glyph unicode=";" horiz-adv-x="708" d="M225 -139l131 428l123 -41l-168 -418zM287 985q0 39 28.5 68.5t69.5 29.5t69.5 -28.5t28.5 -69.5t-28.5 -69.5t-69.5 -28.5t-69.5 28.5t-28.5 69.5z" />
<glyph unicode="&#x3c;" horiz-adv-x="1204" d="M61 512l947 547l51 -88l-793 -459l795 -459l-51 -88z" />
<glyph unicode="=" horiz-adv-x="1429" d="M205 307v103h1020v-103h-1020zM205 610v103h1020v-103h-1020z" />
<glyph unicode="&#x3e;" horiz-adv-x="1204" d="M143 971l52 88l948 -545l-946 -549l-52 88l793 461z" />
<glyph unicode="?" horiz-adv-x="958" d="M102 1399q123 125 297 125q207 0 322 -129t115 -287q0 -197 -123 -315q-98 -98 -246 -119l-12 -330h-78l-17 436l111 -2q104 23 170 88q92 92 92 242q0 98 -66.5 191.5t-195.5 115.5q-35 6 -72 6q-25 0 -39 -2q-106 -14 -186 -94zM315 90q0 41 29 69.5t70 28.5 t69.5 -28.5t28.5 -69.5t-28.5 -69.5t-69.5 -28.5t-70 28.5t-29 69.5z" />
<glyph unicode="@" horiz-adv-x="1634" d="M113 670q0 301 206.5 505.5t501.5 204.5t503 -203.5t208 -508.5q0 -174 -117 -304.5t-270 -130.5q-80 0 -104.5 36t-24.5 96v32q-88 -129 -250 -129q-174 0 -287.5 118t-113.5 276q0 176 117.5 288.5t275.5 112.5q174 0 258 -125v100h71q-4 0 -4 -395v-182 q0 -106 10.5 -131t51.5 -25q117 0 216 105.5t99 257.5q0 276 -187.5 458.5t-453.5 182.5q-264 0 -449.5 -183.5t-185.5 -455.5q0 -266 184.5 -451.5t456.5 -185.5q217 0 385 129l43 -58q-195 -143 -428 -143q-303 0 -507.5 207t-204.5 502zM436 662q0 -129 93.5 -225.5 t236.5 -96.5q152 0 250 121v409q-96 121 -258 121q-129 0 -225.5 -93t-96.5 -236z" />
<glyph unicode="A" horiz-adv-x="1619" d="M102 23l709 1515l707 -1515l-101 -48l-258 553h-698l-258 -553zM512 639h596l-299 639z" />
<glyph unicode="B" horiz-adv-x="1286" d="M246 0v1491h372q174 0 281 -113.5t107 -259.5q0 -139 -74 -219q-18 -18 -63.5 -45t-67.5 -31q76 -8 183.5 -116.5t107.5 -276.5q0 -193 -126 -311.5t-290 -118.5h-430zM356 111h318q121 0 214 88t93 229q0 117 -78 211t-203 94h-344v-622zM356 844h318q92 16 156.5 90 t64.5 182q0 104 -77 184t-200 80h-262v-536z" />
<glyph unicode="C" horiz-adv-x="1650" d="M113 741q0 227 109.5 410.5t286.5 282t382 98.5q338 0 565 -232l-78 -77q-195 199 -487 198q-272 0 -470 -194.5t-198 -483.5q0 -274 194.5 -471.5t483.5 -197.5q272 0 471 192l78 -78q-229 -225 -547 -225q-227 0 -410.5 109.5t-281.5 286.5t-98 382z" />
<glyph unicode="D" horiz-adv-x="1480" d="M246 0v1491h372q311 0 530.5 -217t219.5 -526.5t-219 -528.5t-531 -219h-372zM356 111h262q264 0 450.5 186t186.5 450.5t-186 448.5t-451 184h-262v-1269z" />
<glyph unicode="E" horiz-adv-x="1204" d="M246 0v1491h676v-111h-566v-536h451v-111h-451v-622h643v-111h-753z" />
<glyph unicode="F" horiz-adv-x="1122" d="M246 0v1491h753v-111h-643v-536h451v-111h-451v-733h-110z" />
<glyph unicode="G" horiz-adv-x="1650" d="M113 741q0 227 109.5 410.5t286.5 282t382 98.5q338 0 565 -232l-78 -77q-195 199 -487 198q-272 0 -470 -194.5t-198 -483.5q0 -274 194.5 -471.5t483.5 -197.5q248 0 438 164v290h-438v111h549v-451q-229 -225 -547 -225q-227 0 -410.5 109.5t-281.5 286.5t-98 382z " />
<glyph unicode="H" horiz-adv-x="1503" d="M246 0v1491h110v-647h791v647h110v-1491h-110v733h-791v-733h-110z" />
<glyph unicode="I" horiz-adv-x="602" d="M246 0v1491h110v-1491h-110z" />
<glyph unicode="J" horiz-adv-x="1198" d="M0 223l109 19q25 -123 123 -210t245 -87q141 0 253 101t112 269v1176h110v-553q0 -215 1 -351t1 -190v-67q0 -223 -144 -359.5t-331 -136.5q-193 0 -319.5 113.5t-159.5 275.5z" />
<glyph unicode="K" horiz-adv-x="1415" d="M246 0v1491h110v-1491h-110zM389 791l729 729l78 -78l-651 -651l747 -748l-78 -78z" />
<glyph unicode="L" horiz-adv-x="1214" d="M246 0v1491h110v-1380h787v-111h-897z" />
<glyph unicode="M" horiz-adv-x="1951" d="M246 0v1540l731 -870l729 870v-1540h-111v1237l-618 -739l-621 739v-1237h-110z" />
<glyph unicode="N" horiz-adv-x="1681" d="M246 0v1540l1079 -1286v1237h111v-1540l-1080 1286v-1237h-110z" />
<glyph unicode="O" horiz-adv-x="1794" d="M113 741q0 227 109.5 410.5t286.5 282t382 98.5q227 0 410.5 -109.5t281.5 -287t98 -381.5q0 -227 -109.5 -410.5t-286.5 -282t-382 -98.5q-227 0 -410.5 109.5t-281.5 286.5t-98 382zM223 743q0 -268 191.5 -468.5t486.5 -200.5q268 0 469 190.5t201 483.5 q0 281 -194.5 477t-485.5 196q-266 0 -467 -191.5t-201 -486.5z" />
<glyph unicode="P" horiz-adv-x="1300" d="M246 0v1491h456q215 0 345.5 -144.5t130.5 -330.5q0 -213 -140.5 -350.5t-328.5 -137.5h-353v-528h-110zM356 639h351q141 0 250.5 103.5t109.5 273.5q0 141 -99.5 252.5t-265.5 111.5h-346v-741z" />
<glyph unicode="Q" horiz-adv-x="1845" d="M113 741q0 342 231 566.5t547 224.5q227 0 410.5 -109.5t281.5 -287t98 -381.5q0 -336 -231 -566l223 -223l-78 -78l-229 230q-209 -154 -463 -154q-227 0 -410.5 109.5t-281.5 286.5t-98 382zM223 743q0 -268 191.5 -468.5t486.5 -200.5q266 0 468 190.5t202 483.5 q0 281 -194.5 477t-485.5 196q-266 0 -467 -191.5t-201 -486.5z" />
<glyph unicode="R" horiz-adv-x="1351" d="M246 0v1491h456q215 0 345.5 -144.5t130.5 -330.5q0 -193 -121 -331t-287 -138q-80 0 -129 16l520 -522l-78 -78l-675 676h299q141 0 250.5 103.5t109.5 273.5q0 141 -99.5 252.5t-265.5 111.5h-346v-1380h-110z" />
<glyph unicode="S" horiz-adv-x="1214" d="M113 426l110 6q8 -109 46 -185.5t93.5 -113.5t106.5 -52t109 -15q166 0 269 110.5t103 243.5q0 109 -79.5 177.5t-321.5 129.5q-371 100 -371 383q0 104 39 187t101.5 128t130 69t133.5 24q184 0 297.5 -117t121.5 -291l-110 -6q-6 131 -89 217t-218 86q-115 0 -205 -76 t-90 -217q0 -207 289 -278q281 -74 382 -171.5t101 -244.5q0 -178 -133 -321.5t-353 -143.5q-68 0 -135 19.5t-141 66.5t-125 146.5t-61 238.5z" />
<glyph unicode="T" horiz-adv-x="1208" d="M41 1380v111h1126v-111h-503v-1380h-111v1380h-512z" />
<glyph unicode="U" horiz-adv-x="1617" d="M246 524v967h110v-963q0 -178 127 -313t332 -135q176 0 311.5 128t135.5 331v952h110v-952q0 -252 -169 -411t-388 -159q-252 0 -410.5 168t-158.5 387z" />
<glyph unicode="V" horiz-adv-x="1454" d="M20 1464l101 47l606 -1302l608 1302l101 -47l-709 -1515z" />
<glyph unicode="W" horiz-adv-x="2232" d="M20 1464l101 47l606 -1302l330 704l-258 551l100 47l606 -1302l609 1302l100 -47l-709 -1515l-389 833l-389 -833z" />
<glyph unicode="X" horiz-adv-x="1572" d="M82 35l633 753l-561 670l84 70l555 -660l555 662l84 -72l-568 -676l627 -747l-84 -72l-621 739l-618 -737z" />
<glyph unicode="Y" horiz-adv-x="1218" d="M82 1464l100 47l426 -917l428 917l101 -47l-473 -1013v-451h-111v453z" />
<glyph unicode="Z" horiz-adv-x="1515" d="M41 0l1159 1380h-1003v111h1239l-1157 -1380h1196v-111h-1434z" />
<glyph unicode="[" horiz-adv-x="743" d="M266 -410v2048h477v-102h-374v-1843h374v-103h-477z" />
<glyph unicode="\" horiz-adv-x="919" d="M0 1624l96 35l701 -1925l-97 -35z" />
<glyph unicode="]" horiz-adv-x="741" d="M0 -307h373v1843h-373v102h475v-2048h-475v103z" />
<glyph unicode="^" horiz-adv-x="958" d="M143 961l336 722l336 -722l-92 -43l-244 524l-243 -524z" />
<glyph unicode="_" horiz-adv-x="1024" d="M0 -154h1024v-102h-1024v102z" />
<glyph unicode="`" horiz-adv-x="602" d="M102 1491l91 92l307 -328l-64 -65z" />
<glyph unicode="a" d="M143 535q0 250 168 411.5t394 161.5q246 0 368 -178v143h103v-1073h-103v156q-123 -182 -356 -183q-250 0 -412 167.5t-162 394.5zM246 537q0 -186 132 -323.5t337 -137.5q221 0 358 172v586q-137 172 -366 172q-186 0 -323.5 -132t-137.5 -337z" />
<glyph unicode="b" d="M246 0v1638h102v-708q123 178 369 178q225 0 393 -162t168 -411q0 -227 -162 -394.5t-411 -167.5q-233 0 -357 183v-156h-102zM348 248q137 -172 359 -172q205 0 337 137t132 324q0 205 -137.5 337t-323.5 132q-229 0 -367 -172v-586z" />
<glyph unicode="c" horiz-adv-x="1245" d="M143 535q0 250 168 411.5t394 161.5q250 0 417 -174l-73 -74q-135 145 -342 146q-186 0 -323.5 -132.5t-137.5 -336.5q0 -186 132 -323.5t337 -137.5q197 0 334 143l73 -72q-164 -174 -405 -174q-250 0 -412 167.5t-162 394.5z" />
<glyph unicode="d" d="M143 535q0 250 168 411.5t394 161.5q246 0 368 -178v708h103v-1638h-103v156q-123 -182 -356 -183q-250 0 -412 167.5t-162 394.5zM246 537q0 -186 132 -323.5t337 -137.5q219 0 358 172v586q-137 172 -366 172q-186 0 -323.5 -132t-137.5 -337z" />
<glyph unicode="e" horiz-adv-x="1345" d="M143 535q0 250 168 411.5t396 161.5q201 0 347 -110.5t199 -284.5l-1007 -176q0 -186 133 -323.5t338 -137.5q125 0 233 63l51 -88q-131 -78 -284 -78q-250 0 -412 167.5t-162 394.5zM258 641l848 150q-61 98 -165.5 156.5t-233.5 58.5q-160 0 -287 -100.5t-162 -264.5z " />
<glyph unicode="f" horiz-adv-x="851" d="M143 971v102h103q2 164 82 296t207 200.5t272 68.5h147v-102h-147q-182 0 -319.5 -130t-139.5 -333h483v-102h-483v-971h-102v971h-103z" />
<glyph unicode="g" horiz-adv-x="1423" d="M143 545q0 227 162 395t412 168q231 0 358 -184v114h103v-780v-102q-4 -248 -171 -407t-391 -159h-147v103h147q182 0 319.5 130t139.5 333q-125 -184 -368 -185q-227 0 -395.5 162t-168.5 412zM246 545q0 -205 138 -338t323 -133q227 0 368 172v588q-139 172 -358 172 q-205 0 -338 -138.5t-133 -322.5z" />
<glyph unicode="h" horiz-adv-x="1345" d="M246 0v1638h102v-708q127 178 369 178q172 0 277.5 -112.5t105.5 -260.5v-735h-103v733q0 106 -77.5 189.5t-202.5 83.5q-227 0 -369 -172v-834h-102z" />
<glyph unicode="i" horiz-adv-x="688" d="M246 1348q0 41 28.5 69.5t69.5 28.5t69.5 -28.5t28.5 -69.5t-28.5 -70t-69.5 -29t-69.5 29t-28.5 70zM295 0v1073h102v-1073h-102z" />
<glyph unicode="j" horiz-adv-x="774" d="M246 -336q135 135 135 336v1073h102v-1071v-2q0 -246 -166 -408zM332 1348q0 41 28.5 69.5t69.5 28.5t69.5 -28.5t28.5 -69.5t-28.5 -70t-69.5 -29t-69.5 29t-28.5 70z" />
<glyph unicode="k" horiz-adv-x="1167" d="M246 0v1638h102v-1638h-102zM379 541l571 571l72 -72l-500 -499l502 -502l-72 -72z" />
<glyph unicode="l" horiz-adv-x="593" d="M246 0v1638h102v-1638h-102z" />
<glyph unicode="m" horiz-adv-x="2093" d="M246 0v1073h102v-143q123 178 369 178q119 0 209 -57.5t135 -149.5l35 49q111 158 368 158q172 0 277.5 -112.5t105.5 -260.5v-735h-102v733q0 109 -77 191t-204 82q-227 0 -368 -172v-54q4 -29 4 -45v-735h-103v733q0 109 -77.5 191t-204.5 82q-229 0 -367 -172v-834 h-102z" />
<glyph unicode="n" horiz-adv-x="1447" d="M246 0v1073h102v-272q23 102 173.5 204.5t299.5 102.5q172 0 276.5 -112.5t104.5 -260.5v-735h-102v733q0 109 -77 191t-204 82q-205 0 -338 -137.5t-133 -323.5v-545h-102z" />
<glyph unicode="o" d="M143 535q0 250 168 411.5t394 161.5q250 0 411.5 -167t161.5 -394q0 -250 -168 -412t-393 -162q-250 0 -412 167.5t-162 394.5zM246 537q0 -186 132 -323.5t337 -137.5q186 0 323.5 132t137.5 337q0 186 -132.5 323.5t-336.5 137.5q-186 0 -323.5 -132t-137.5 -337z" />
<glyph unicode="p" d="M246 -410v1489h102v-155q123 184 357 184q250 0 411.5 -168t161.5 -395q0 -250 -168 -412t-393 -162q-246 0 -369 181v-562h-102zM348 246q137 -172 367 -172q186 0 323.5 133t137.5 338q0 184 -132.5 322.5t-336.5 138.5q-221 0 -359 -172v-588z" />
<glyph unicode="q" d="M143 545q0 227 162 395t412 168q233 0 356 -184v155h103v-1489h-103v562q-123 -180 -368 -181q-225 0 -393.5 162t-168.5 412zM246 545q0 -205 137 -338t324 -133q229 0 366 172v588q-137 172 -358 172q-205 0 -337 -138.5t-132 -322.5z" />
<glyph unicode="r" horiz-adv-x="903" d="M246 0v1073h102v-272q23 102 173.5 204.5t299.5 102.5v-102q-205 0 -339 -137.5t-134 -323.5v-545h-102z" />
<glyph unicode="s" horiz-adv-x="1093" d="M143 78q231 16 398.5 96t167.5 176q0 51 -58.5 103.5t-127 91.5t-127 106.5t-58.5 145.5v4q0 23 4 37q14 53 49 95t83 69.5t99.5 48t107.5 32t95 16.5t74 7l35 4l6 -102q-25 0 -86.5 -9.5t-149.5 -29t-151.5 -65.5t-63.5 -107q0 -53 58.5 -105.5t127 -91.5t127 -106.5 t58.5 -147.5q0 -16 -10 -51q-23 -78 -95.5 -138.5t-150.5 -92t-178.5 -53t-144.5 -28t-82 -8.5z" />
<glyph unicode="t" horiz-adv-x="954" d="M143 971v102h103v303h102v-303h483v-102h-483v-619q0 -106 78 -189t203 -83q74 0 141 39l51 -88q-88 -53 -190 -54q-172 0 -278.5 113t-106.5 260v621h-103z" />
<glyph unicode="u" horiz-adv-x="1447" d="M246 346v727h102v-725q0 -109 77 -190.5t204 -81.5q205 0 338 137t133 324v536h102v-1073h-102v281q-23 -102 -173.5 -205t-299.5 -103q-172 0 -276.5 113t-104.5 260z" />
<glyph unicode="v" horiz-adv-x="1218" d="M92 1065l92 43l426 -911l426 911l92 -43l-518 -1110z" />
<glyph unicode="w" horiz-adv-x="1812" d="M92 1065l92 43l426 -911l240 512l-166 354l92 43l426 -913l426 913l92 -45l-518 -1110l-297 637l-295 -633z" />
<glyph unicode="x" horiz-adv-x="1245" d="M102 20l455 541l-405 486l77 65l400 -475l399 475l78 -65l-412 -490l451 -537l-78 -65l-444 528l-443 -528z" />
<glyph unicode="y" horiz-adv-x="1220" d="M92 1065l92 43l426 -911l426 911l92 -43l-702 -1505l-92 45l219 471z" />
<glyph unicode="z" horiz-adv-x="1277" d="M102 0l816 971h-725v102h944l-815 -971h854v-102h-1074z" />
<glyph unicode="{" horiz-adv-x="921" d="M246 563v103q76 0 138 55t62 153v510q0 121 74 187.5t166 66.5h236v-102h-232q-53 0 -97 -39t-44 -111v-509q0 -174 -135 -263q135 -88 135 -262v-510q0 -72 44 -110.5t97 -38.5h232v-103h-236q-92 0 -166 67t-74 187v510q0 98 -62 153.5t-138 55.5z" />
<glyph unicode="|" horiz-adv-x="593" d="M246 -410v2048h102v-2048h-102z" />
<glyph unicode="}" horiz-adv-x="921" d="M0 -307h231q53 0 97.5 39t44.5 110v510q0 174 135 262q-135 88 -135 263v509q0 72 -44 111t-98 39h-231v102h236q94 0 166.5 -66.5t72.5 -187.5v-510q0 -98 62.5 -153t138.5 -55v-103q-76 0 -138.5 -55t-62.5 -154v-510q0 -121 -72.5 -187.5t-166.5 -66.5h-236v103z" />
<glyph unicode="~" horiz-adv-x="1206" d="M61 553l87 72q36 31 82 49t106 18q68 0 114 -16.5t85 -46.5l98 -76q61 -53 114.5 -86t112.5 -33q45 0 70.5 9.5t58.5 35.5l92 74l64 -80l-103 -83q-39 -32 -78.5 -45t-105.5 -13q-57 0 -103 17.5t-85 47.5l-97 74l-89 70q-34 27 -66.5 38t-81.5 11q-39 0 -66.5 -10.5 t-59.5 -36.5l-85 -70z" />
<glyph unicode="&#xa2;" horiz-adv-x="1120" d="M205 539q0 158 103.5 278.5t273.5 138.5v250h102v-250q141 -18 252 -129l-74 -69q-98 98 -231 98q-145 0 -234.5 -93t-89.5 -226q0 -141 93.5 -231.5t226.5 -90.5q139 0 235 100l74 -71q-109 -111 -252 -127v-250h-102v248q-160 16 -268.5 133t-108.5 291z" />
<glyph unicode="&#xa3;" horiz-adv-x="1187" d="M246 0v102h98q205 0 205 162q0 47 -15.5 83t-44.5 72l-73 89h-170v102h84q-72 84 -72 191q0 117 85 210t228 93q72 0 146 -41t114 -135l-88 -51q-45 125 -172 124q-96 0 -153.5 -62t-57.5 -140q0 -55 27 -94t78 -95h240v-102h-156q53 -63 77.5 -114.5t24.5 -123.5 q0 -45 -10 -86q-4 -18 -23 -41q-16 -16 -49 -41h70q129 0 195.5 68t66.5 174q0 16 -16 82l94 41q25 -68 25 -119q0 -162 -101.5 -255t-263.5 -93h-393z" />
<glyph unicode="&#xad;" horiz-adv-x="727" d="M61 575l588 105l17 -100l-586 -105z" />
<glyph unicode="&#xb4;" horiz-adv-x="602" d="M102 1255l308 328l90 -92l-334 -301z" />
<glyph unicode="&#x2000;" horiz-adv-x="841" />
<glyph unicode="&#x2001;" horiz-adv-x="1683" />
<glyph unicode="&#x2002;" horiz-adv-x="841" />
<glyph unicode="&#x2003;" horiz-adv-x="1683" />
<glyph unicode="&#x2004;" horiz-adv-x="561" />
<glyph unicode="&#x2005;" horiz-adv-x="419" />
<glyph unicode="&#x2006;" horiz-adv-x="280" />
<glyph unicode="&#x2007;" horiz-adv-x="280" />
<glyph unicode="&#x2008;" horiz-adv-x="208" />
<glyph unicode="&#x2009;" horiz-adv-x="335" />
<glyph unicode="&#x200a;" horiz-adv-x="92" />
<glyph unicode="&#x2010;" horiz-adv-x="727" d="M61 575l588 105l17 -100l-586 -105z" />
<glyph unicode="&#x2011;" horiz-adv-x="727" d="M61 575l588 105l17 -100l-586 -105z" />
<glyph unicode="&#x2012;" horiz-adv-x="727" d="M61 575l588 105l17 -100l-586 -105z" />
<glyph unicode="&#x2013;" horiz-adv-x="1024" d="M0 487v103h1024v-103h-1024z" />
<glyph unicode="&#x2014;" horiz-adv-x="2048" d="M0 487v103h2048v-103h-2048z" />
<glyph unicode="&#x2018;" horiz-adv-x="458" d="M82 1616l123 43l131 -430l-86 -29z" />
<glyph unicode="&#x2019;" horiz-adv-x="456" d="M123 1229l131 430l123 -43l-168 -416z" />
<glyph unicode="&#x201c;" horiz-adv-x="751" d="M82 1616l121 43l131 -430l-86 -29zM375 1616l123 43l131 -430l-86 -29z" />
<glyph unicode="&#x201d;" horiz-adv-x="751" d="M123 1229l131 430l123 -43l-168 -416zM418 1229l131 430l121 -43l-166 -416z" />
<glyph unicode="&#x2026;" horiz-adv-x="2048" d="M246 90q0 41 28.5 69.5t69.5 28.5t69.5 -28.5t28.5 -69.5t-28.5 -69.5t-69.5 -28.5t-69.5 28.5t-28.5 69.5zM926 90q0 41 28.5 69.5t69.5 28.5t69.5 -28.5t28.5 -69.5t-28.5 -69.5t-69.5 -28.5t-69.5 28.5t-28.5 69.5zM1610 90q0 41 28.5 69.5t69.5 28.5t69.5 -28.5 t28.5 -69.5t-28.5 -69.5t-69.5 -28.5t-69.5 28.5t-28.5 69.5z" />
<glyph unicode="&#x202f;" horiz-adv-x="335" />
<glyph unicode="&#x205f;" horiz-adv-x="419" />
<glyph unicode="&#x20ac;" horiz-adv-x="1308" d="M61 584l39 96h144q43 152 146.5 253t201.5 136t188 35q242 0 418 -168q-37 -94 -41 -94l-27 26q-25 25 -62.5 55.5t-111 57.5t-157.5 29h-11q-150 0 -269.5 -89.5t-168.5 -222.5l-6 -18h746l-39 -96h-727q0 -2 -1 -17.5t-1 -27.5q0 -14 1 -29.5t1 -17.5h688l-41 -97h-627 l6 -18q59 -158 186.5 -234.5t251.5 -76.5q84 0 160 26.5t118 57t67 57.5l24 26v-131l-20 -16q-156 -115 -342 -115q-49 0 -103.5 10.5t-128.5 38t-144.5 91t-121.5 155.5q-31 55 -53 129h-176l38 97h123q-2 8 -2 45q0 39 2 47h-168z" />
<glyph unicode="&#x2122;" horiz-adv-x="3160" d="M1454 0v1540l731 -870l729 870v-1540h-111v1237l-618 -739l-621 739v-1237h-110zM41 1380v111h1126v-111h-503v-1380h-111v1380h-512z" />
<glyph unicode="&#xe000;" horiz-adv-x="1110" d="M0 1110h1110v-1110h-1110v1110z" />
<glyph unicode="&#xfb01;" horiz-adv-x="1540" d="M1098 1348q0 41 28.5 69.5t69.5 28.5t69.5 -28.5t28.5 -69.5t-28.5 -70t-69.5 -29t-69.5 29t-28.5 70zM1147 0v1073h102v-1073h-102zM143 971v102h103q2 164 82 296t207 200.5t272 68.5h147v-102h-147q-182 0 -319.5 -130t-139.5 -333h483v-102h-483v-971h-102v971h-103z " />
<glyph unicode="&#xfb02;" horiz-adv-x="1445" d="M1098 0v1638h102v-1638h-102zM143 971v102h103q2 164 82 296t207 200.5t272 68.5h147v-102h-147q-182 0 -319.5 -130t-139.5 -333h483v-102h-483v-971h-102v971h-103z" />
<glyph unicode="&#xfb03;" horiz-adv-x="2392" d="M1950 1348q0 41 28.5 69.5t69.5 28.5t69.5 -28.5t28.5 -69.5t-28.5 -70t-69.5 -29t-69.5 29t-28.5 70zM1999 0v1073h102v-1073h-102zM995 971v102h103q2 164 82 296t207 200.5t272 68.5h147v-102h-147q-182 0 -319.5 -130t-139.5 -333h483v-102h-483v-971h-102v971h-103z M143 971v102h103q2 164 82 296t207 200.5t272 68.5h147v-102h-147q-182 0 -319.5 -130t-139.5 -333h483v-102h-483v-971h-102v971h-103z" />
<glyph unicode="&#xfb04;" horiz-adv-x="2297" d="M1950 0v1638h102v-1638h-102zM995 971v102h103q2 164 82 296t207 200.5t272 68.5h147v-102h-147q-182 0 -319.5 -130t-139.5 -333h483v-102h-483v-971h-102v971h-103zM143 971v102h103q2 164 82 296t207 200.5t272 68.5h147v-102h-147q-182 0 -319.5 -130t-139.5 -333 h483v-102h-483v-971h-102v971h-103z" />
</font>
</defs>
</svg>
